<?xml version="1.0" encoding="UTF-8"?>
<svg xmlns="http://www.w3.org/2000/svg" width="512" height="512" viewBox="0 0 512 512">
  <title>Stylet package overview</title>
  <desc>A stylus and pressure-sensitive stroke representing rich pen input.</desc>
  <rect width="512" height="512" rx="80" fill="#181F33"/>
  <g transform="translate(38.4 38.4) scale(0.534601226993865)">
    <!-- One lens ring leaves the aperture readable at small icon sizes. -->
    <circle cx="407.5" cy="407.5" r="350" fill="none" stroke="#3F4B62" stroke-width="26" />

    <!-- Keep the original eight-blade aperture as the photographic signature. -->
    <g fill="#354056">
      <path d="m 272.3999,156.6001 c 0,0 -84,31.2 -133.5,148.6 l 273.4,-51.7 z" />
      <path d="m 134.6999,321.9001 c 0,0 -36.999993,81.6 11.4,199.4 l 156.1,-230.4 z" />
      <path d="m 155.6999,533.0001 c 0,0 31.2,83.9 148.6,133.5 l -51.7,-273.5 z" />
      <path d="m 320.9999,670.6001 c 0,0 81.5,37 199.4,-11.4 l -230.4,-156 z" />
      <path d="m 536.4999,652.3001 c 0,0 84,-31.2 133.5,-148.6 l -273.5,51.7 z" />
      <path d="m 662.7999,287.6001 -156,230.5 167.4,-31.1 c 0,0 36.9,-81.5 -11.4,-199.4 z" />
      <path d="m 652.2999,276.0001 c 0,0 -31.2,-83.9 -148.6,-133.5 l 51.7,273.5 z" />
      <path d="m 486.99996,138.40014 c 0,0 -81.5,-37 -199.4,11.4 l 230.5,156 z" />
    </g>

    <!-- A short, flat blue accent replaces the bright full-ring gradient. -->
    <path d="M654.987 160.013 A350 350 0 0 1 654.987 654.987" fill="none" stroke="#538BD5" stroke-width="26" stroke-linecap="round" />
  </g>
  <!-- The package symbol replaces Focale's monogram, without an extra badge. -->
  <g transform="translate(256 256) scale(1.12) translate(-256 -256)">
    <g fill="none" stroke-linecap="round" stroke-linejoin="round">
      <path d="M294 190 322 218 257 283l-34 7 7-34Z" stroke="#EDF0F4" stroke-width="9"/>
      <path d="m230 256 27 27m50-78-65 65" stroke="#538BD5" stroke-width="7"/>
      <path d="M190 320c25-30 53-27 72-14 20 13 39 13 60-6" stroke="#538BD5" stroke-width="12"/>
    </g>
  </g>
</svg>
